<svg width="34" height="34" viewBox="0 0 34 34" fill="none" xmlns="http://www.w3.org/2000/svg">
<g id="Frame 85">
<rect x="0.5" y="0.5" width="33" height="33" rx="16.5" stroke="#D9D9D9"/>
<g id="Group 6">
<mask id="mask0_698_7049" style="mask-type:alpha" maskUnits="userSpaceOnUse" x="0" y="0" width="34" height="34">
<circle id="Ellipse 3" cx="17" cy="17" r="17" fill="#D9D9D9"/>
</mask>
<g mask="url(#mask0_698_7049)">
<g id="Group 5">
<circle id="Ellipse 4" cx="17" cy="13" r="6" fill="#D9D9D9"/>
<path id="Ellipse 5" d="M33 34.5C33 32.8585 32.5861 31.233 31.7821 29.7165C30.978 28.1999 29.7994 26.8219 28.3137 25.6612C26.828 24.5004 25.0641 23.5797 23.1229 22.9515C21.1817 22.3233 19.1011 22 17 22C14.8988 22 12.8183 22.3233 10.8771 22.9515C8.93585 23.5797 7.17203 24.5004 5.68629 25.6612C4.20055 26.8219 3.022 28.1999 2.21793 29.7165C1.41385 31.233 1 32.8585 1 34.5L17 34.5H33Z" fill="#D9D9D9"/>
</g>
</g>
</g>
</g>
</svg>
